<?xml version="1.0" standalone="no"?>
<!DOCTYPE svg PUBLIC "-//W3C//DTD SVG 20010904//EN"
 "http://www.w3.org/TR/2001/REC-SVG-20010904/DTD/svg10.dtd">
<svg version="1.0" xmlns="http://www.w3.org/2000/svg"
 width="305.000000pt" height="165.000000pt" viewBox="0 0 305.000000 165.000000"
 preserveAspectRatio="xMidYMid meet">

<g transform="translate(0.000000,165.000000) scale(0.100000,-0.100000)"
fill="#000000" stroke="none">
<path d="M756 1435 c-3 -9 -5 -33 -5 -53 1 -26 3 -29 6 -12 10 65 14 75 24 59
9 -12 10 -12 7 0 -6 21 -25 24 -32 6z"/>
<path d="M776 1370 c4 -19 2 -30 -5 -30 -19 0 -12 -43 18 -101 15 -30 31 -71
35 -89 3 -19 14 -42 23 -52 15 -17 15 -20 -10 -46 -35 -36 -37 -65 -3 -32 14
12 28 35 31 51 4 16 11 31 16 34 5 4 9 11 9 16 0 6 -5 7 -11 3 -7 -4 -10 -2
-8 5 3 7 8 12 13 11 5 -1 12 2 15 7 3 5 18 16 34 26 26 17 27 17 27 0 0 -18
-27 -51 -65 -78 -16 -12 -16 -14 -2 -9 11 4 17 1 17 -10 0 -9 5 -16 10 -16 7
0 7 6 1 19 -8 15 -6 20 15 30 31 14 37 14 29 1 -3 -6 1 -7 9 -4 26 10 18 -4
-11 -20 -16 -8 -23 -15 -17 -16 7 0 22 9 35 19 22 18 22 20 7 26 -10 4 -15 11
-12 16 3 5 -3 6 -13 3 -17 -5 -17 -5 0 9 13 11 17 22 12 37 -5 16 3 32 35 67
32 34 39 47 29 53 -10 7 -10 11 0 24 7 9 18 13 24 9 6 -3 7 -1 3 6 -9 15 -20
8 -48 -31 -12 -17 -17 -28 -11 -25 22 14 22 -10 1 -29 -20 -18 -21 -18 -15 -1
4 11 3 16 -4 12 -5 -4 -8 -12 -6 -18 2 -7 -9 -24 -24 -39 -34 -33 -55 -38 -39
-9 15 29 12 41 -7 34 -13 -5 -15 -3 -9 13 5 10 11 28 14 39 5 17 7 16 13 -10
l7 -30 1 33 c0 17 -4 32 -9 32 -14 0 -52 -89 -47 -109 3 -9 5 -5 6 9 1 20 3
22 11 9 10 -17 2 -59 -11 -59 -5 0 -9 6 -10 13 0 6 -4 2 -9 -10 -5 -13 -17
-23 -26 -23 -14 0 -16 7 -11 36 3 20 3 34 0 31 -8 -9 -38 32 -51 71 -8 23 -8
40 -2 52 13 24 13 57 0 65 -6 4 -7 -6 -4 -25z m84 -256 c0 -8 -4 -12 -10 -9
-5 3 -10 10 -10 16 0 5 5 9 10 9 6 0 10 -7 10 -16z m-10 -68 c0 -2 -8 -10 -17
-17 -16 -13 -17 -12 -4 4 13 16 21 21 21 13z"/>
<path d="M2288 1378 c-23 -19 -61 -78 -54 -85 7 -8 73 43 86 66 15 29 -4 41
-32 19z"/>
<path d="M1819 1341 c-25 -26 -29 -37 -29 -86 0 -39 -4 -55 -12 -54 -7 1 -28
1 -46 0 -26 -1 -33 -5 -30 -18 2 -12 15 -16 53 -17 l50 -1 3 -40 c4 -62 11
-85 27 -85 12 0 13 12 8 65 l-6 65 37 0 c25 0 36 4 36 15 0 14 -22 20 -61 17
-22 -2 -33 63 -16 96 19 39 42 49 65 29 23 -21 42 -22 42 -3 0 20 -39 46 -68
46 -13 0 -37 -13 -53 -29z"/>
<path d="M2049 1341 c-25 -26 -29 -37 -29 -86 0 -39 -4 -55 -12 -54 -7 1 -28
1 -46 0 -26 -1 -33 -5 -30 -18 3 -14 12 -17 47 -14 51 3 61 -7 61 -61 0 -46 8
-68 26 -68 10 0 12 14 7 65 l-6 65 37 0 c25 0 36 4 36 15 0 8 -10 16 -22 17
-13 0 -29 2 -37 2 -22 2 -34 62 -19 93 20 40 43 51 66 30 23 -21 42 -22 42 -3
0 20 -39 46 -68 46 -13 0 -37 -13 -53 -29z"/>
<path d="M684 1325 c-9 -21 -2 -26 13 -10 8 9 9 16 3 20 -6 3 -13 -1 -16 -10z"/>
<path d="M1280 1329 c-69 -28 -98 -95 -80 -184 13 -63 45 -95 95 -95 49 0 133
65 112 87 -5 4 -16 2 -25 -5 -80 -58 -89 -60 -123 -33 -21 17 -24 28 -24 86 0
61 2 69 29 92 22 19 38 24 70 21 32 -2 42 1 44 15 3 12 -3 17 -21 17 -14 0
-31 2 -39 4 -7 3 -24 0 -38 -5z"/>
<path d="M814 1316 c-3 -8 -4 -21 -1 -28 3 -8 6 -6 6 5 1 10 6 15 11 12 6 -3
10 -2 10 4 0 17 -20 23 -26 7z"/>
<path d="M718 1290 c11 -42 12 -77 2 -90 -9 -13 -11 -13 -21 0 -9 13 -10 12
-5 -3 3 -10 6 -21 6 -24 0 -4 8 2 19 11 18 16 19 16 23 -7 3 -13 -1 -33 -9
-43 -7 -10 -13 -25 -12 -33 0 -12 3 -10 9 4 8 19 9 19 9 -2 1 -13 -3 -23 -9
-23 -5 0 -10 -5 -10 -11 0 -8 5 -8 15 1 8 7 15 25 15 40 0 29 21 55 35 42 5
-4 5 -2 1 5 -4 7 -13 10 -20 7 -19 -7 -30 59 -16 87 7 11 9 23 6 27 -3 3 -6 0
-6 -6 0 -20 -16 -13 -26 11 -6 12 -8 15 -6 7z"/>
<path d="M836 1275 c-3 -8 -1 -25 4 -37 8 -20 9 -18 9 15 1 39 -3 47 -13 22z"/>
<path d="M702 1250 c0 -14 2 -19 5 -12 2 6 2 18 0 25 -3 6 -5 1 -5 -13z"/>
<path d="M1506 1247 c-28 -28 -41 -82 -32 -135 14 -88 101 -80 136 12 l11 30
19 -29 c23 -35 48 -51 61 -38 6 6 -1 22 -20 42 -17 18 -39 55 -49 84 -19 50
-21 52 -61 55 -32 3 -46 -2 -65 -21z m82 -42 c4 -34 -24 -111 -43 -119 -8 -3
-22 2 -31 11 -23 24 -11 91 22 121 32 28 48 24 52 -13z"/>
<path d="M1032 1225 c-39 -35 -54 -72 -23 -55 23 12 77 70 65 70 -5 0 -2 5 6
10 10 6 11 10 3 10 -7 0 -30 -16 -51 -35z m28 0 c-7 -8 -17 -15 -22 -15 -6 0
-5 7 2 15 7 8 17 15 22 15 6 0 5 -7 -2 -15z m-40 -35 c0 -5 -5 -10 -11 -10 -5
0 -7 5 -4 10 3 6 8 10 11 10 2 0 4 -4 4 -10z"/>
<path d="M2232 1253 c-20 -8 -43 -61 -45 -102 -3 -79 59 -119 130 -84 47 23
58 49 17 39 -77 -19 -87 -19 -101 0 -22 31 -16 44 22 44 60 0 96 57 59 94 -15
15 -55 20 -82 9z m58 -48 c0 -17 -39 -30 -52 -17 -6 6 -2 15 13 25 24 17 39
14 39 -8z"/>
<path d="M516 1235 c-21 -21 -20 -44 2 -75 14 -21 17 -44 14 -137 -1 -62 -7
-124 -12 -139 -8 -19 -7 -31 2 -42 9 -10 14 -54 15 -130 2 -132 11 -154 60
-136 17 6 26 16 24 25 -3 8 -4 64 -4 124 l1 110 38 14 c100 36 265 5 280 -53
12 -50 -4 -92 -54 -138 -62 -58 -176 -124 -227 -131 -62 -8 -95 -24 -95 -46 0
-20 37 -54 51 -45 4 2 30 8 56 14 61 11 207 96 280 163 42 39 56 60 69 104 29
98 -1 163 -94 205 -56 25 -204 36 -256 18 -32 -10 -40 -10 -47 1 -5 8 -9 71
-9 141 0 102 -3 130 -16 142 -8 9 -19 16 -24 16 -5 0 -15 3 -23 6 -8 3 -22 -2
-31 -11z"/>
<path d="M681 1234 c0 -11 3 -14 6 -6 3 7 2 16 -1 19 -3 4 -6 -2 -5 -13z"/>
<path d="M1008 1143 c7 -3 16 -2 19 1 4 3 -2 6 -13 5 -11 0 -14 -3 -6 -6z"/>
<path d="M781 1102 c-1 -12 -12 -32 -26 -44 -29 -25 -33 -43 -6 -29 21 12 45
64 38 83 -3 7 -6 3 -6 -10z"/>
<path d="M808 1073 c6 -2 18 -2 25 0 6 3 1 5 -13 5 -14 0 -19 -2 -12 -5z"/>
<path d="M2190 961 c-67 -35 -129 -184 -116 -275 9 -55 44 -116 83 -142 66
-44 183 -38 253 13 51 38 61 52 49 74 -13 26 -42 24 -87 -6 -44 -29 -115 -41
-154 -26 -35 13 -58 50 -65 102 -6 40 -5 41 18 33 35 -11 100 -7 141 10 56 24
78 59 78 123 0 47 -4 59 -29 84 -25 25 -37 29 -83 29 -33 0 -67 -7 -88 -19z
m125 -80 c9 -16 -16 -58 -42 -70 -90 -41 -130 34 -42 77 41 21 68 18 84 -7z"/>
<path d="M1216 947 c-47 -26 -78 -81 -102 -178 -15 -61 -15 -71 0 -121 30
-103 81 -142 186 -142 70 0 112 16 169 63 30 24 32 30 22 49 -15 29 -43 28
-89 -3 -50 -33 -119 -42 -159 -22 -33 18 -63 70 -63 111 0 24 3 26 28 19 59
-16 153 6 188 44 40 43 37 135 -7 176 -39 36 -114 38 -173 4z m130 -69 c12
-19 -7 -58 -36 -73 -56 -29 -107 -15 -96 28 11 45 111 79 132 45z"/>
<path d="M1818 940 c-15 -4 -42 -20 -61 -34 -29 -23 -36 -24 -41 -11 -8 23
-73 47 -105 40 -36 -8 -97 -59 -117 -97 -14 -27 -14 -31 2 -49 24 -27 35 -24
66 21 33 48 74 62 95 34 12 -15 14 -48 11 -149 l-3 -130 29 -3 c16 -2 32 0 37
5 5 5 13 53 18 106 10 104 27 146 72 180 33 24 66 15 76 -21 5 -15 7 -87 6
-159 l-2 -133 34 0 c44 0 47 11 48 174 1 116 -1 136 -20 172 -30 56 -79 74
-145 54z"/>
<path d="M868 315 c3 -53 7 -65 20 -64 11 0 12 2 5 6 -9 3 -13 26 -13 64 0 32
-3 59 -7 59 -5 0 -6 -29 -5 -65z"/>
<path d="M1442 368 c-7 -7 -8 -17 -1 -30 6 -11 6 -18 0 -18 -16 0 -24 -40 -11
-55 14 -17 103 -17 92 0 -4 5 -5 19 -4 30 2 16 1 17 -7 5 -9 -13 -12 -13 -27
2 -14 14 -15 20 -5 32 26 31 -9 62 -37 34z m38 -19 c0 -5 -7 -9 -15 -9 -15 0
-20 12 -9 23 8 8 24 -1 24 -14z m-5 -59 c16 -18 16 -20 1 -26 -21 -8 -47 13
-39 32 7 19 17 18 38 -6z"/>
<path d="M2003 360 c-3 -11 -10 -20 -17 -20 -8 0 -8 -2 1 -8 6 -4 13 -25 16
-47 l4 -40 1 43 c1 26 7 42 15 42 8 0 8 3 -2 9 -12 8 -12 12 -2 25 10 12 10
16 1 16 -6 0 -14 -9 -17 -20z"/>
<path d="M2102 360 c-4 -10 -5 -41 -2 -67 l5 -48 3 43 c2 24 8 42 15 42 8 0 7
4 -2 9 -12 8 -12 12 -2 25 10 11 10 16 2 16 -6 0 -15 -9 -19 -20z"/>
<path d="M2192 318 c3 -54 6 -63 23 -65 11 -2 14 0 8 3 -8 4 -13 27 -13 65 0
34 -4 59 -10 59 -7 0 -10 -24 -8 -62z"/>
<path d="M1098 353 c-2 -10 -1 -36 2 -58 4 -30 10 -40 25 -42 11 -2 14 0 8 3
-7 3 -13 21 -13 39 0 18 6 36 13 38 10 4 10 6 0 6 -7 1 -13 8 -13 16 0 21 -17
19 -22 -2z"/>
<path d="M584 326 c-3 -8 -4 -27 -2 -43 2 -21 9 -29 30 -33 20 -4 25 -9 19
-19 -5 -8 -16 -11 -25 -8 -9 4 -16 2 -16 -4 0 -6 12 -9 28 -7 26 3 27 6 30 66
l3 62 -31 0 c-17 0 -33 -6 -36 -14z m51 -15 c7 -23 -3 -51 -20 -51 -17 0 -27
28 -20 51 8 24 32 24 40 0z"/>
<path d="M732 328 c-15 -15 -16 -50 0 -66 14 -14 58 -16 58 -4 0 5 -10 8 -21
8 -12 -1 -24 5 -26 12 -3 8 6 12 26 12 27 0 30 2 22 23 -9 25 -40 34 -59 15z
m46 -16 c2 -7 -6 -12 -17 -12 -21 0 -27 11 -14 24 9 9 26 2 31 -12z"/>
<path d="M965 330 c-4 -7 2 -9 19 -4 20 5 26 2 26 -9 0 -9 -10 -17 -22 -19
-15 -2 -24 -11 -26 -25 -3 -20 1 -23 32 -23 34 0 36 2 36 33 0 18 -5 38 -12
45 -15 15 -45 16 -53 2z m45 -55 c0 -8 -9 -15 -20 -15 -11 0 -20 7 -20 15 0 8
9 15 20 15 11 0 20 -7 20 -15z"/>
<path d="M1211 326 c-7 -8 -11 -27 -9 -43 3 -24 8 -28 33 -28 28 0 30 2 30 40
0 33 -4 41 -21 43 -11 2 -26 -4 -33 -12z m44 -32 c0 -19 -6 -30 -17 -32 -21
-4 -34 34 -17 54 18 22 34 11 34 -22z"/>
<path d="M1670 336 c0 -20 24 -86 31 -86 5 0 13 15 18 33 l9 32 12 -32 c7 -18
15 -33 19 -33 10 0 34 80 27 87 -3 3 -8 -3 -12 -13 -15 -48 -17 -49 -27 -16
-12 40 -23 41 -32 2 -7 -32 -25 -41 -25 -12 0 17 -20 55 -20 38z"/>
<path d="M1855 330 c-4 -7 2 -9 19 -4 20 5 26 2 26 -9 0 -9 -10 -17 -22 -19
-15 -2 -23 -10 -23 -23 0 -15 8 -21 33 -23 l33 -3 -3 43 c-3 38 -6 43 -30 46
-14 2 -29 -2 -33 -8z m53 -52 c-7 -20 -48 -23 -48 -4 0 11 9 16 26 16 16 0 24
-5 22 -12z"/>
<path d="M2288 314 c-8 -18 -9 -30 -1 -42 11 -18 63 -30 63 -14 0 5 -10 8 -21
8 -12 -1 -24 5 -26 12 -3 8 6 12 26 12 34 0 36 2 21 31 -15 27 -48 24 -62 -7z
m50 -2 c2 -7 -6 -12 -17 -12 -21 0 -27 11 -14 24 9 9 26 2 31 -12z"/>
</g>
</svg>
